<?xml version="1.0" standalone="no"?><!DOCTYPE svg PUBLIC "-//W3C//DTD SVG 1.1//EN" "http://www.w3.org/Graphics/SVG/1.1/DTD/svg11.dtd"><svg width="100%" height="100%" viewBox="0 0 169 35" version="1.1" xmlns="http://www.w3.org/2000/svg" xmlns:xlink="http://www.w3.org/1999/xlink" xml:space="preserve" style="fill-rule:evenodd;clip-rule:evenodd;stroke-linejoin:round;stroke-miterlimit:1.41421;"><path d="M136.506,24.366l-3.296,7.675l0.918,0.375l1.11,-2.802l3.28,0l1.047,2.802l0.891,-0.375l-3.098,-7.675l-0.852,0ZM135.558,28.805l1.365,-3.451l1.292,3.451l-2.657,0ZM131.169,24.401l-2.717,-0.016l-0.034,7.799l0.973,0.007l0.021,-3.321l1.734,0.007c1.148,0.006 2.081,-0.928 2.086,-2.091l0,-0.276c0.006,-1.163 -0.92,-2.106 -2.063,-2.109ZM132.075,27.579c-0.283,0.41 -0.746,0.68 -1.273,0.677l-1.387,-0.005l-0.003,0l0.011,-3.235l0.008,0l1.386,0.006c0.85,0.004 1.533,0.705 1.532,1.569c-0.004,0.333 -0.102,0.68 -0.274,0.988ZM127.018,24.723l-0.56,-0.607l-3.898,4.018l0,-3.835l-0.976,0l0,7.802l0.976,0l0,-3.858l3.784,4.053l0.715,-0.69l-3.318,-3.48l3.277,-3.403ZM149.811,27.831l-4.139,0l0,-3.43l-0.975,0l0,7.796l0.975,0l0,-3.54l4.139,0l0,3.54l0.975,0l0,-7.796l-0.975,0l0,3.43ZM141.742,22.96l-0.972,0l0,0.991l0.972,0l0,-0.991ZM142.575,23.951l0.976,0l0,-0.991l-0.976,0l0,0.991ZM155.971,24.366l-0.851,0l-3.298,7.675l0.919,0.375l1.112,-2.802l3.276,0l1.053,2.802l0.885,-0.375l-3.096,-7.675ZM154.171,28.805l1.364,-3.451l1.293,3.451l-2.657,0ZM141.6,32.197l0.974,0l0,-7.796l-0.974,0l0,7.796ZM117.725,28.52l-2.312,-4.365l-0.77,0.256l2.626,5.258c-0.297,0.747 -0.518,1.299 -0.57,1.409c-0.196,0.4 -0.517,0.94 -1.387,0.836l0,0.692c0,0 1.52,0.334 2.175,-1.21c0.027,-0.074 0.059,-0.14 0.086,-0.209l0.029,-0.071c0.089,-0.207 0.15,-0.379 0.208,-0.524l2.409,-6.181l-0.775,-0.256c0,0 -0.936,2.393 -1.719,4.365Z" style="fill:#008449;"/><path d="M80.147,6.526l0,-2.684l1.293,0c0.225,0.015 0.484,0.014 0.701,0.075c0.846,0.238 0.93,0.968 0.929,1.252c0.019,0.458 -0.191,0.721 -0.319,0.868c-0.372,0.375 -0.81,0.44 -1.311,0.473c-0.141,0 -0.304,0.016 -0.467,0.017l-0.826,-0.001ZM60.402,6.221l1.472,0c0.771,-0.017 1.096,-0.13 1.322,-0.468c0.083,-0.114 0.209,-0.332 0.209,-0.662c-0.001,-0.124 -0.013,-0.515 -0.259,-0.796c-0.354,-0.438 -0.918,-0.439 -1.401,-0.453l-1.344,0l0.001,2.379ZM30.316,10.712c1.072,-0.037 2.098,-0.267 2.885,-1.169c0.343,-0.378 0.827,-1.096 0.827,-2.301c0,-0.966 -0.326,-1.596 -0.551,-1.919c-0.772,-1.143 -1.969,-1.393 -3.328,-1.393c-0.435,-0.001 -0.888,0.017 -1.324,0.016l0.001,6.735l1.49,0.031ZM0,4.513l2.975,0l0,-3.03l-2.975,0l0,3.03ZM167.347,2.465c0.464,0.462 0.75,1.104 0.751,1.813l0.002,-0.002l0,0.007l-0.002,-0.001c0,0.71 -0.287,1.352 -0.752,1.815c-0.462,0.464 -1.105,0.75 -1.811,0.751l0,0.003l-0.006,-0.001l-0.001,0.001l0,-0.003c-0.709,0 -1.351,-0.287 -1.814,-0.752c-0.464,-0.462 -0.75,-1.104 -0.751,-1.811l-0.002,0l-0.001,-0.005l0.001,-0.001l0.002,0c0,-0.709 0.287,-1.352 0.752,-1.815c1,-1.003 2.634,-1.001 3.632,0.001ZM164.235,5.789l0,-3.017l1.282,0.001c0.324,-0.001 0.559,0.026 0.704,0.08c0.147,0.054 0.266,0.15 0.352,0.287c0.089,0.142 0.131,0.299 0.131,0.475c0,0.229 -0.067,0.416 -0.198,0.563c-0.134,0.148 -0.335,0.242 -0.596,0.28c0.131,0.077 0.239,0.161 0.322,0.252c0.089,0.092 0.202,0.254 0.348,0.49l0.371,0.589l-0.731,0l-0.439,-0.656c-0.156,-0.236 -0.264,-0.383 -0.319,-0.444c-0.061,-0.062 -0.121,-0.103 -0.186,-0.126c-0.065,-0.021 -0.165,-0.032 -0.309,-0.033l-0.12,0.001l0.001,1.258l-0.613,0ZM164.847,4.048l0.451,0c0.29,0 0.474,-0.013 0.548,-0.036c0.072,-0.026 0.127,-0.07 0.168,-0.13c0.042,-0.057 0.064,-0.135 0.064,-0.223c0,-0.105 -0.029,-0.184 -0.085,-0.248c-0.051,-0.062 -0.128,-0.1 -0.228,-0.118c-0.048,-0.008 -0.196,-0.009 -0.443,-0.009l-0.474,0l-0.001,0.764ZM163.9,2.65c-0.413,0.416 -0.674,0.996 -0.674,1.629l0.002,0l0,0.006l-0.003,-0.001c0.003,0.632 0.262,1.208 0.675,1.626c0.416,0.415 0.995,0.675 1.628,0.675l0,-0.001l0.002,-0.001l0.006,-0.001l-0.001,0.003c0.631,-0.003 1.21,-0.261 1.626,-0.674c0.413,-0.415 0.674,-0.995 0.674,-1.629l-0.002,0.001l0,-0.003l0,-0.004l0.003,0c-0.003,-0.63 -0.262,-1.209 -0.676,-1.626c-0.9,-0.9 -2.358,-0.89 -3.26,0ZM20.997,12.96l3.017,0l0,-11.257l-3.017,0l0,11.257ZM19.31,8.431l-4.911,0l0,2.216l4.912,0l0,2.313l-7.82,0.001l0,-11.258l7.82,0l-0.001,2.327l-4.911,-0.001l0,2.137l4.912,0l-0.001,2.265ZM9.678,12.962l-2.975,0l0,-4.447l-3.732,0l0,4.447l-2.971,0l0,-6.857l6.703,0l0,-4.401l2.975,0l0,11.258ZM61.887,10.774c0.387,-0.01 0.624,-0.024 0.825,-0.099c0.271,-0.096 0.709,-0.363 0.709,-1.051c0,-0.126 -0.016,-0.392 -0.208,-0.685c-0.338,-0.534 -0.952,-0.551 -1.531,-0.55l-1.281,-0.001l0,2.37l1.486,0.016ZM60.401,12.939l-2.89,0l0,-11.248l4.73,0c1.635,0.028 2.473,0.262 3.086,0.779c0.426,0.346 0.922,0.961 0.922,2.201c0,0.222 0,0.364 -0.045,0.582c-0.05,0.283 -0.225,1.117 -0.972,1.651c-0.259,0.187 -0.501,0.3 -0.793,0.408c0.258,0.091 0.876,0.299 1.36,0.864c0.437,0.5 0.63,1.098 0.63,1.762c-0.001,1.552 -0.922,2.259 -1.473,2.555c-0.709,0.39 -1.543,0.477 -3.069,0.463l-1.486,-0.017ZM28.826,12.939l-3.021,0l0,-11.244l3.409,-0.001c0.534,-0.016 1.068,0 1.58,0c0.327,0.001 0.665,0 0.991,0.033c0.533,0.043 1.973,0.155 3.24,1.094c0.809,0.592 2.106,1.935 2.085,4.391c0,0.359 -0.016,1.14 -0.338,2.049c-0.58,1.623 -1.921,2.894 -3.62,3.407c-0.547,0.172 -1.243,0.299 -2.486,0.299l-0.35,-0.005l-1.49,-0.023ZM51.046,10.504l4.959,0l0,2.456l-7.946,0l0,-11.257l2.987,0l0,8.801ZM46.341,8.431l-4.913,-0.001l-0.001,2.217l4.913,0l0.001,2.313l-7.822,0l0.001,-11.257l7.821,0l0,2.327l-4.914,0l0,2.136l4.914,0l0,2.265ZM75.567,8.431l-4.913,-0.002l0,2.218l4.913,0l0,2.313l-7.817,0l0,-11.258l7.817,0.001l0.002,2.327l-4.915,0l0,2.136l4.913,0l0,2.265ZM94.528,10.583l0,-3.681l2.909,0l-0.119,5.458c-0.449,0.158 -0.9,0.266 -1.35,0.356c-0.271,0.065 -0.784,0.188 -1.44,0.272c-0.465,0.052 -0.937,0.088 -1.417,0.101l-0.066,0c-1.532,0 -2.893,-0.342 -4.088,-1.295c-0.76,-0.603 -2.036,-1.937 -2.036,-4.339c0,-0.633 0.079,-2.109 1.159,-3.525c0.218,-0.279 0.763,-0.926 1.602,-1.467c0.697,-0.41 1.727,-0.892 3.592,-0.891c1.806,-0.001 3.032,0.431 3.712,0.693l-0.747,2.032c-0.242,-0.079 -0.48,-0.167 -0.725,-0.242c-0.551,-0.171 -1.248,-0.296 -1.845,-0.296c-0.254,0 -0.934,0.029 -1.626,0.321c-1.923,0.851 -2.086,2.786 -2.086,3.387c0,0.232 0,0.759 0.263,1.355c0.63,1.519 1.991,1.931 2.825,2.024c0.119,0.012 0.237,0.018 0.361,0.017c0.51,0.004 0.935,-0.147 1.122,-0.28ZM86.788,12.939l-2.003,-3.587c-0.304,-0.477 -0.663,-1.047 -1.192,-1.345c-0.117,-0.077 -0.167,-0.092 -0.312,-0.124c0.178,-0.033 0.34,-0.045 0.516,-0.099c0.342,-0.075 0.618,-0.217 0.73,-0.262c0.321,-0.178 0.597,-0.397 0.821,-0.665c0.434,-0.537 0.647,-1.297 0.647,-1.972c0.016,-0.888 -0.321,-1.519 -0.513,-1.802c-0.893,-1.293 -2.495,-1.408 -3.929,-1.408c-1.018,0.001 -2.036,-0.026 -3.037,0l-1.259,0.001l-0.001,11.263l2.891,0l0,-4.236l0.422,0.016c0.225,0.016 0.438,0.049 0.612,0.144c0.276,0.138 0.484,0.489 0.777,1.056l1.534,3.02l3.296,0ZM161.145,1.711l0,1.11l-3.63,0l0,10.185l-1.434,0l0,-10.166l-3.637,0l-0.001,-1.129l8.702,0ZM141.975,2.128l-0.001,10.861l1.289,0l0,-7.011c0,-0.353 -0.015,-0.707 -0.033,-1.063c-0.017,-0.451 -0.067,-0.903 -0.112,-1.367c0.441,0.79 0.504,0.885 1.333,2.012c0.769,1.035 1.538,2.078 2.301,3.11c1.083,1.483 2.175,2.952 3.252,4.433l1.109,-0.468l0,-10.924l-1.288,0l0,7.122c-0.001,0.966 0.016,1.382 0.146,2.317c-0.175,-0.349 -0.357,-0.705 -0.572,-1.047c-0.309,-0.496 -0.651,-0.981 -1.012,-1.447c-0.736,-1.035 -1.516,-2.032 -2.267,-3.048c-0.996,-1.323 -1.956,-2.658 -2.94,-3.979l-1.205,0.499ZM139.935,1.711l0,1.092l-4.617,0l0,3.855l4.491,0l0.001,1.126l-4.51,0l0,4.097l4.752,0l0,1.139l-6.153,0.001l0,-11.31l6.036,0ZM120.168,1.728l-2.027,11.137l1.322,0.224c0.179,-1.113 0.359,-2.225 0.555,-3.34c0.179,-1.046 0.376,-2.093 0.538,-3.158c0.18,-1.126 0.313,-2.27 0.439,-3.417c0.149,0.547 0.275,1.111 0.458,1.663c0.117,0.342 0.246,0.661 0.358,0.983c0.376,0.967 0.717,1.952 1.077,2.932c0.524,1.436 1.035,2.851 1.552,4.269l1.309,0c0.717,-1.884 1.434,-3.771 2.169,-5.657c0.133,-0.364 0.275,-0.74 0.426,-1.111c0.179,-0.45 0.342,-0.9 0.52,-1.354c0.214,-0.562 0.409,-1.161 0.601,-1.757c0.02,1.226 0.1,1.901 0.43,4.159c0.292,1.948 0.588,3.903 0.897,5.851l1.335,-0.277l-1.807,-11.163l-1.406,-0.001c-0.403,1.031 -0.834,2.06 -1.221,3.093c-0.325,0.804 -0.622,1.628 -0.948,2.433c-0.301,0.773 -0.62,1.516 -0.917,2.286c-0.241,0.665 -0.472,1.355 -0.7,2.028c-0.135,-0.446 -0.242,-0.898 -0.405,-1.334c-0.217,-0.644 -0.481,-1.253 -0.705,-1.901l-0.784,-2.271c-0.504,-1.452 -1.047,-2.871 -1.565,-4.306l-1.501,-0.011ZM116.439,1.712l0,1.091l-4.622,0l0,3.855l4.493,0l0,1.126l-4.509,0l0,4.097l4.751,0l0.001,1.14l-6.154,0l0,-11.31l6.04,0.001ZM108.852,2.641c-0.246,-0.127 -0.491,-0.27 -0.751,-0.38c-1.26,-0.542 -2.545,-0.605 -3.019,-0.605c-2.61,0.001 -4.063,1.34 -4.718,2.12c-0.851,1.038 -1.293,2.345 -1.293,3.704c0,1.66 0.659,3.284 1.914,4.371c1.468,1.274 3.117,1.387 3.817,1.387c1.96,-0.019 3.316,-0.766 3.954,-1.116l-0.509,-0.942c-1.047,0.494 -2.007,0.943 -3.232,0.942c-1.994,0 -3.087,-1.135 -3.508,-1.708c-0.867,-1.149 -0.914,-2.445 -0.914,-2.952c0.001,-0.638 0.08,-2.423 1.565,-3.67c1.159,-0.971 2.369,-1.036 2.937,-1.036c1.242,0 1.93,0.269 2.418,0.494c0.258,0.128 0.505,0.269 0.768,0.413l0.571,-1.022Z" style="fill:#008449;"/></svg>